<?xml version="1.0" encoding="UTF-8"?>
<svg version="1.1" xmlns="http://www.w3.org/2000/svg" width="1024" height="1024">
<path d="M0 0 C337.92 0 675.84 0 1024 0 C1024 337.92 1024 675.84 1024 1024 C686.08 1024 348.16 1024 0 1024 C0 686.08 0 348.16 0 0 Z " fill="#FEFEFE" transform="translate(0,0)"/>
<path d="M0 0 C30.03 0 60.06 0 91 0 C95.95 13.2 100.9 26.4 106 40 C109.22063786 48.50668478 112.44193388 57.01291728 115.67489624 65.51489258 C122.38467352 83.16203486 129.07497346 100.81614822 135.6875 118.5 C141.46622782 133.95222133 147.31367816 149.37762566 153.18322754 164.79556274 C158.11103877 177.7410908 163.02129346 190.69302772 167.90234375 203.65625 C168.15163698 204.3182585 168.40093021 204.98026699 168.65777779 205.66233635 C170.91436498 211.65501437 173.17036059 217.64791482 175.42483521 223.64138794 C182.20381894 241.67398889 182.20381894 241.67398889 189.125 259.65234375 C189.42016006 260.40986435 189.71532013 261.16738495 190.01942444 261.94786072 C191.30524102 265.24198051 192.5992472 268.53242416 193.90405273 271.8190918 C194.32630127 272.89199463 194.7485498 273.96489746 195.18359375 275.0703125 C195.53993896 275.96508301 195.89628418 276.85985352 196.26342773 277.78173828 C197 280 197 280 197 283 C197.66 283 198.32 283 199 283 C199.12785889 282.11900635 199.25571777 281.2380127 199.38745117 280.33032227 C199.94996839 277.27201324 200.72521894 274.62427279 201.80078125 271.71484375 C202.18951416 270.6570874 202.57824707 269.59933105 202.97875977 268.50952148 C203.41889404 267.33075439 203.85902832 266.1519873 204.3125 264.9375 C204.79704363 263.62908019 205.28132608 262.32056363 205.76538086 261.01196289 C212.63647039 242.48025518 219.65759252 224.00381951 226.64810181 205.51695251 C231.94442129 191.50739797 237.22277403 177.49107994 242.50189209 163.47503662 C262.28762611 110.94516102 262.28762611 110.94516102 267.91796875 96.08276367 C268.57553311 94.3468471 269.23308518 92.61092587 269.890625 90.875 C270.21526733 90.0180806 270.53990967 89.16116119 270.87438965 88.27827454 C273.17987093 82.18582341 275.46543475 76.08610067 277.74449158 69.98371887 C279.46620929 65.37833127 281.19581531 60.77592731 282.92654419 56.17391968 C283.75548352 53.96415709 284.58100558 51.75310903 285.40280151 49.54067993 C286.54468011 46.46766707 287.69876625 43.39948956 288.85546875 40.33203125 C289.35134491 38.98353088 289.35134491 38.98353088 289.85723877 37.60778809 C295.22297268 23.49400046 303.38703052 12.18539478 316.51953125 4.47265625 C325.93473832 0.48889299 335.06922511 -0.43047533 345.203125 -0.29296875 C346.4069281 -0.28872391 347.6107312 -0.28447906 348.85101318 -0.28010559 C352.65091461 -0.26347295 356.45026211 -0.22584952 360.25 -0.1875 C362.84504436 -0.17243325 365.44009713 -0.15874836 368.03515625 -0.14648438 C374.35695602 -0.11362009 380.67843841 -0.06357699 387 0 C387.61705811 1.12136353 387.61705811 1.12136353 388.24658203 2.26538086 C396.04479887 16.43167303 403.86662769 30.58340069 411.7800293 44.68579102 C417.92318416 55.6361794 424.01643868 66.61411611 430.10888672 77.59277344 C433.23745052 83.22951968 436.36886077 88.8646841 439.5 94.5 C440.75001382 96.74999232 442.00001382 98.99999232 443.25 101.25 C443.86875 102.36375 444.4875 103.4775 445.125 104.625 C450.75 114.75 450.75 114.75 452.62524414 118.12548828 C453.87437505 120.37389139 455.12356119 122.62226382 456.37280273 124.87060547 C459.51155491 130.5197867 462.64932443 136.1695096 465.78515625 141.8203125 C468.8929174 147.42037308 472.00572406 153.01761174 475.11962891 158.61425781 C476.7378217 161.52792928 478.3511854 164.44416917 479.96202087 167.36190796 C481.55424888 170.24335902 483.15279136 173.12130759 484.75 176 C485.33467041 177.06299316 485.91934082 178.12598633 486.52172852 179.22119141 C487.33855103 180.68951416 487.33855103 180.68951416 488.171875 182.1875 C488.8848877 183.47720703 488.8848877 183.47720703 489.61230469 184.79296875 C490.90485892 186.84868484 492.20788458 188.37585407 494 190 C502.68607354 175.80031519 511.30210722 161.56707157 519.6875 147.1875 C524.673155 138.6395705 529.70592535 130.12640597 534.875 121.6875 C540.38619103 112.68875839 545.80617654 103.63923972 551.1875 94.5625 C551.78733704 93.55097366 551.78733704 93.55097366 552.39929199 92.51901245 C555.67459344 86.99487766 558.94674282 81.46887795 562.21795654 75.94232178 C577.27695517 50.50099918 592.58324182 25.22742248 608 0 C636.38 0 664.76 0 694 0 C694 128.7 694 257.4 694 390 C667.27 390 640.54 390 613 390 C612.67 307.83 612.34 225.66 612 141 C605.73 151.56 599.46 162.12 593 173 C584.5 187 584.5 187 580.3203125 193.86328125 C575.61454042 201.60391426 570.99273286 209.39413505 566.375 217.1875 C565.56950445 218.54663427 564.76400318 219.90576515 563.95849609 221.26489258 C563.5640329 221.93047684 563.1695697 222.5960611 562.76315308 223.28181458 C562.17656418 224.27153511 562.17656418 224.27153511 561.578125 225.28125 C561.19020782 225.93578659 560.80229065 226.59032318 560.40261841 227.26469421 C554.88488121 236.57170592 549.33184108 245.85699894 543.73339844 255.11572266 C541.99487709 258.00852424 540.28150737 260.91518748 538.5703125 263.82421875 C530.68547586 277.09662486 523.09886082 289.29159272 508 295 C507.113125 295.36222656 506.22625 295.72445313 505.3125 296.09765625 C495.54795774 298.75757283 482.57612407 298.44355514 473.31640625 294.328125 C469.16762338 291.94939621 465.56153523 289.18163814 462 286 C461.39542969 285.48824219 460.79085938 284.97648437 460.16796875 284.44921875 C454.43461056 279.23354528 450.83799859 272.6491269 447 266 C446.47374023 265.0925 445.94748047 264.185 445.40527344 263.25 C442.23652445 257.78263099 439.08114254 252.30772307 435.93359375 246.828125 C432.86965343 241.49914065 429.77599332 236.18848865 426.66650391 230.88598633 C420.73763323 220.77542841 414.94961333 210.59652242 409.24975586 200.35522461 C405.25035132 193.18620687 401.15636123 186.07903835 397 179 C391.58931179 169.78215481 386.32109543 160.49299204 381.1159668 151.15771484 C377.38123827 144.46092404 373.61853885 137.78153486 369.8125 131.125 C369.33119629 130.28259766 368.84989258 129.44019531 368.35400391 128.57226562 C365.85990361 124.21665726 363.34561127 119.8737279 360.80859375 115.54296875 C360.29514404 114.66431152 359.78169434 113.7856543 359.25268555 112.88037109 C358.27240429 111.20521297 357.2883626 109.53224808 356.30004883 107.86181641 C355.86587646 107.1197998 355.4317041 106.3777832 354.984375 105.61328125 C354.59991211 104.96141846 354.21544922 104.30955566 353.81933594 103.63793945 C353 102 353 102 353 100 C352.34 100 351.68 100 351 100 C350.84724609 100.56307861 350.69449219 101.12615723 350.53710938 101.70629883 C348.58148724 108.58334048 346.03828287 115.13284759 343.30712891 121.73571777 C342.1627522 124.50302556 341.02944181 127.27483402 339.89501953 130.04623413 C339.26892133 131.57544269 338.64227933 133.1044287 338.01513672 134.63320923 C334.37518861 143.5094367 330.78319952 152.40497891 327.19104004 161.30062866 C325.98297373 164.29216215 324.77428693 167.28344425 323.56542969 170.2746582 C321.04307127 176.51621725 318.52149094 182.75809046 316 189 C315.15560035 191.09016983 314.31119931 193.18033911 313.46679688 195.27050781 C305.33550687 215.39864053 297.2066648 235.52775939 289.0859375 255.66015625 C270.28203723 302.27657453 270.28203723 302.27657453 262.52270508 321.37744141 C259.43912135 328.97033499 256.3668683 336.56763238 253.30953979 344.17114258 C251.57303206 348.48945898 249.83417355 352.80682749 248.09533691 357.12420654 C247.2494771 359.22646075 246.40480443 361.32919305 245.56140137 363.43243408 C244.38378137 366.36893447 243.20205091 369.30375118 242.01953125 372.23828125 C241.67225479 373.10744675 241.32497833 373.97661224 240.96717834 374.87211609 C240.63487717 375.69460342 240.30257599 376.51709076 239.96020508 377.36450195 C239.67679764 378.07008743 239.3933902 378.77567291 239.10139465 379.50263977 C237.53151759 383.06226168 235.73985184 386.52029632 234 390 C208.59 390 183.18 390 157 390 C151.555 376.14 151.555 376.14 146 362 C143.38016884 355.54858115 140.75705603 349.0999429 138.10839844 342.66052246 C131.78116786 327.27054993 125.52292598 311.85383274 119.34765625 296.40234375 C119.0639662 295.69255182 118.78027615 294.9827599 118.48798943 294.25145912 C115.67989273 287.2240567 112.87576481 280.19508094 110.07683754 273.16402149 C104.19793918 258.39878265 98.25310244 243.66555605 92.14135742 228.99493408 C88.75279331 220.85710608 85.45036289 212.68887707 82.1875 204.5 C81.73205559 203.35849991 81.73205559 203.35849991 81.26741028 202.19393921 C80.57344792 200.45377419 79.88043697 198.71322984 79.1875 196.97265625 C75.72150464 188.2804942 72.2064301 179.60833882 68.6875 170.9375 C68.37042084 170.15604614 68.05334167 169.37459229 67.72665405 168.56945801 C65.79615032 163.81195141 63.86475999 159.05480519 61.93304443 154.29779053 C59.28739065 147.78238998 56.6430451 141.26645922 54 134.75 C53.70378754 134.01973602 53.40757507 133.28947205 53.10238647 132.53707886 C47.38694511 118.44395098 41.69617174 104.34089163 36.00735474 90.23699951 C25.29627823 63.67641459 25.29627823 63.67641459 14.5625 37.125 C14.26101044 36.37995209 13.95952087 35.63490417 13.64889526 34.86727905 C9.87869659 25.55543297 6.07312865 16.25987477 2.07836914 7.04150391 C0 2.20640491 0 2.20640491 0 0 Z " fill="#05375E" transform="translate(165,317)"/>
<path d="M0 0 C0.33 0 0.66 0 1 0 C1 72.6 1 145.2 1 220 C-28.37 220 -57.74 220 -88 220 C-84.62512803 208.75042677 -84.62512803 208.75042677 -83.06494141 204.91650391 C-82.53507629 203.60474937 -82.53507629 203.60474937 -81.99450684 202.26649475 C-81.61733521 201.34581711 -81.24016357 200.42513947 -80.8515625 199.4765625 C-80.44683716 198.47801743 -80.04211182 197.47947235 -79.62512207 196.45066833 C-78.29588874 193.17374681 -76.96042475 189.89940265 -75.625 186.625 C-74.6855616 184.31195986 -73.74660512 181.99872393 -72.80810547 179.68530273 C-70.85437979 174.8703435 -68.89857511 170.0562364 -66.94140625 165.24267578 C-62.75920144 154.95142526 -58.6053921 144.64872751 -54.44995117 134.34664917 C-48.02176838 118.4131479 -41.58143432 102.48457368 -35.125 86.5625 C-34.82704529 85.82759338 -34.52909058 85.09268677 -34.22210693 84.33551025 C-31.18931224 76.85544447 -28.15377268 69.37650658 -25.11222839 61.8999939 C-23.49042201 57.91292791 -21.86990799 53.92533762 -20.25 49.9375 C-19.93795624 49.16948059 -19.62591248 48.40146118 -19.30441284 47.61016846 C-14.55573571 35.91536157 -9.89152738 24.19010666 -5.32324219 12.42358398 C-4.91106445 11.36469971 -4.49888672 10.30581543 -4.07421875 9.21484375 C-3.71932373 8.29823975 -3.36442871 7.38163574 -2.9987793 6.43725586 C-2.09392086 4.22918893 -1.1002567 2.11625813 0 0 Z " fill="#08385E" transform="translate(532,487)"/>
<path d="M0 0 C42.24 0 84.48 0 128 0 C128 40.59 128 81.18 128 123 C127.67 123 127.34 123 127 123 C126.91024902 122.45287354 126.82049805 121.90574707 126.72802734 121.34204102 C122.09626808 93.72164344 112.2446005 69.5586946 94 48 C93.31164062 47.17628906 92.62328125 46.35257813 91.9140625 45.50390625 C68.61471975 18.54564144 34.86752441 4.39740031 0 1 C0 0.67 0 0.34 0 0 Z " fill="#020202" transform="translate(896,0)"/>
<path d="M0 0 C40.59 0 81.18 0 123 0 C123 0.33 123 0.66 123 1 C122.4423999 1.09498779 121.8847998 1.18997559 121.31030273 1.2878418 C93.82141747 6.04580499 69.37868291 15.60902123 48 34 C46.60007812 35.16402344 46.60007812 35.16402344 45.171875 36.3515625 C18.14542983 59.76976499 4.51781413 93.07017498 1 128 C0.67 128 0.34 128 0 128 C0 85.76 0 43.52 0 0 Z " fill="#020202" transform="translate(0,0)"/>
<path d="M0 0 C0.33 0 0.66 0 1 0 C1.14695313 1.06734375 1.29390625 2.1346875 1.4453125 3.234375 C6.62608038 38.57203125 22.31980289 71.68171159 51.234375 93.70751953 C71.67295717 108.66905908 93.83765139 117.24979224 119 120 C119 120.33 119 120.66 119 121 C79.73 121 40.46 121 0 121 C0 81.07 0 41.14 0 0 Z " fill="#020302" transform="translate(0,903)"/>
<path d="M0 0 C0.33 0 0.66 0 1 0 C1 39.93 1 79.86 1 121 C-38.6 121 -78.2 121 -119 121 C-119 120.67 -119 120.34 -119 120 C-117.71609375 119.86464844 -116.4321875 119.72929688 -115.109375 119.58984375 C-89.9994371 116.65532038 -66.48121433 107.35959542 -47 91 C-45.69675781 89.90558594 -45.69675781 89.90558594 -44.3671875 88.7890625 C-28.98769794 75.38492022 -18.37975048 59.44806679 -10 41 C-9.51660156 39.94554687 -9.03320312 38.89109375 -8.53515625 37.8046875 C-3.51736233 25.87789467 -1.47282176 12.7988211 0 0 Z " fill="#020202" transform="translate(1023,903)"/>
<path d="M0 0 C28.05 0 56.1 0 85 0 C85 3.3 85 6.6 85 10 C84.67 10 84.34 10 84 10 C84 7.36 84 4.72 84 2 C73.36016855 2.06115359 62.72058357 2.13821797 52.0810194 2.23571491 C47.14086214 2.28048211 42.20078855 2.31972411 37.26049805 2.34643555 C32.49467776 2.37240534 27.72917841 2.4127625 22.96355629 2.46318626 C21.14349668 2.4798979 19.32338151 2.49138535 17.50325584 2.49761391 C14.95779991 2.5072085 12.41317306 2.5352109 9.86791992 2.56762695 C9.11194519 2.56619186 8.35597046 2.56475677 7.5770874 2.5632782 C3.49928563 2.61553776 3.49928563 2.61553776 0.008255 4.52702332 C-0.32446915 5.01310562 -0.6571933 5.49918793 -1 6 C-0.67 4.02 -0.34 2.04 0 0 Z " fill="#1B3C54" transform="translate(773,317)"/>
<path d="M0 0 C7.51138594 -0.0252899 15.02276097 -0.04284141 22.53417969 -0.05493164 C25.09115001 -0.05997017 27.64811743 -0.06680107 30.20507812 -0.07543945 C33.87370517 -0.08752602 37.54229423 -0.09323301 41.2109375 -0.09765625 C42.35992523 -0.10281754 43.50891296 -0.10797882 44.69271851 -0.11329651 C45.7536673 -0.11337204 46.81461609 -0.11344757 47.90771484 -0.11352539 C49.31336197 -0.11685631 49.31336197 -0.11685631 50.74740601 -0.12025452 C53 0 53 0 55 1 C54.67 2.32 54.34 3.64 54 5 C53.34 3.68 52.68 2.36 52 1 C34.84 1 17.68 1 0 1 C0 0.67 0 0.34 0 0 Z " fill="#EAF8FC" transform="translate(500,316)"/>
<path d="M0 0 C0.99 0.66 1.98 1.32 3 2 C2.4121875 2.2475 1.824375 2.495 1.21875 2.75 C-1.3262446 4.18379977 -2.66914225 5.73639406 -4.5 8 C-6.84063362 10.89387429 -8.6566505 12.41261137 -12 14 C-13.26804566 16.0335948 -13.26804566 16.0335948 -14 18 C-13.5554397 13.11872795 -11.42584537 10.81905022 -8.125 7.3125 C-7.24070312 6.35988281 -6.35640625 5.40726562 -5.4453125 4.42578125 C-3 2 -3 2 0 0 Z " fill="#153A56" transform="translate(476,325)"/>
<path d="M0 0 C9.25842697 2.69662921 9.25842697 2.69662921 12.75 4.125 C15.46637465 5.18136792 18.12096864 5.59827469 21 6 C20.67 6.66 20.34 7.32 20 8 C12.50531671 7.45493212 5.22030627 5.76374509 0 0 Z " fill="#23435C" transform="translate(632,606)"/>
<path d="M0 0 C0.66 0.33 1.32 0.66 2 1 C1.41347648 5.48993869 0.2356462 9.22543184 -1.5625 13.375 C-2.01753906 14.43460938 -2.47257812 15.49421875 -2.94140625 16.5859375 C-3.29074219 17.38257813 -3.64007813 18.17921875 -4 19 C-4.33 19 -4.66 19 -5 19 C-4.39297368 12.3227105 -2.22368606 6.29872004 0 0 Z " fill="#13354F" transform="translate(416,658)"/>
<path d="M0 0 C0.66 0 1.32 0 2 0 C0.51194289 5.80342274 -2.59097555 10.17590879 -6 15 C-6.33 14.01 -6.66 13.02 -7 12 C-6.67 11.34 -6.34 10.68 -6 10 C-5.34 10 -4.68 10 -4 10 C-4 8.68 -4 7.36 -4 6 C-3.34 6 -2.68 6 -2 6 C-1.855625 5.38125 -1.71125 4.7625 -1.5625 4.125 C-1 2 -1 2 0 0 Z " fill="#13354F" transform="translate(767,469)"/>
<path d="M0 0 C0.33 0 0.66 0 1 0 C1.56561146 5.65611463 -0.28608722 9.22642128 -3 14 C-3.66 13.34 -4.32 12.68 -5 12 C-3.35 8.04 -1.7 4.08 0 0 Z " fill="#1B384E" transform="translate(531,490)"/>
<path d="M0 0 C1.49828872 3.88235819 0.43110582 6.43449288 -0.9375 10.25 C-1.31777344 11.32765625 -1.69804687 12.4053125 -2.08984375 13.515625 C-2.39019531 14.33546875 -2.69054687 15.1553125 -3 16 C-3.66 15.67 -4.32 15.34 -5 15 C-1.92482916 4.44191344 -1.92482916 4.44191344 0 0 Z " fill="#284961" transform="translate(488,595)"/>
<path d="M0 0 C0.66 0 1.32 0 2 0 C2.67057887 1.7902061 3.3363469 3.58221489 4 5.375 C4.556875 6.87160156 4.556875 6.87160156 5.125 8.3984375 C6 11 6 11 6 13 C5.34 13 4.68 13 4 13 C3.32404685 11.58774074 2.65959941 10.16997095 2 8.75 C1.62875 7.96109375 1.2575 7.1721875 0.875 6.359375 C0 4 0 4 0 0 Z " fill="#1E4057" transform="translate(265,346)"/>
<path d="M0 0 C0.33 0.66 0.66 1.32 1 2 C-1.25479622 6.42608146 -3.77730382 10.20182235 -7 14 C-6.44010697 10.00987629 -5.24330232 7.4744948 -2.9375 4.1875 C-2.38964844 3.39730469 -1.84179688 2.60710937 -1.27734375 1.79296875 C-0.64505859 0.90544922 -0.64505859 0.90544922 0 0 Z " fill="#193B54" transform="translate(698,443)"/>
<path d="M0 0 C0.66 0.66 1.32 1.32 2 2 C0.35 6.29 -1.3 10.58 -3 15 C-4.11581881 10.53672476 -3.68986512 9.39238394 -2.0625 5.25 C-1.49208984 3.77273438 -1.49208984 3.77273438 -0.91015625 2.265625 C-0.60980469 1.51796875 -0.30945313 0.7703125 0 0 Z " fill="#1B3D59" transform="translate(514,417)"/>
<path d="M0 0 C0.66 0 1.32 0 2 0 C1.52269162 1.4589426 1.04308958 2.91713496 0.5625 4.375 C0.29566406 5.18710937 0.02882813 5.99921875 -0.24609375 6.8359375 C-1 9 -1 9 -2 11 C-2.66 11 -3.32 11 -4 11 C-3.39301257 6.87248551 -1.96189209 3.6678852 0 0 Z " fill="#153953" transform="translate(495,465)"/>
<path d="M0 0 C2 1 2 1 2.8515625 3.28515625 C3.10679687 4.20167969 3.36203125 5.11820312 3.625 6.0625 C3.88539063 6.98160156 4.14578125 7.90070313 4.4140625 8.84765625 C4.60742188 9.55792969 4.80078125 10.26820313 5 11 C3.046875 10.2890625 3.046875 10.2890625 1 9 C0.390625 6.8359375 0.390625 6.8359375 0.25 4.375 C0.19328125 3.55773437 0.1365625 2.74046875 0.078125 1.8984375 C0.05234375 1.27195312 0.0265625 0.64546875 0 0 Z " fill="#20455F" transform="translate(277,377)"/>
<path d="M0 0 C1.31534494 3.65857532 0.65468309 6.08026481 -0.4375 9.75 C-0.86869141 11.22726562 -0.86869141 11.22726562 -1.30859375 12.734375 C-1.53675781 13.48203125 -1.76492188 14.2296875 -2 15 C-3.1171875 13.359375 -3.1171875 13.359375 -4 11 C-3.3203125 8.203125 -3.3203125 8.203125 -2.125 5.25 C-1.73570312 4.26515625 -1.34640625 3.2803125 -0.9453125 2.265625 C-0.63335937 1.51796875 -0.32140625 0.7703125 0 0 Z " fill="#284862" transform="translate(443,386)"/>
<path d="M0 0 C2.24107496 2.88138209 4.33168894 5.74679343 6 9 C5.67 9.99 5.34 10.98 5 12 C1.70343678 10.35171839 1.24171391 7.33005093 0 4 C0 2.68 0 1.36 0 0 Z " fill="#1E405A" transform="translate(608,419)"/>
<path d="M0 0 C0.66 0 1.32 0 2 0 C0.95902388 3.86648272 -0.03698408 7.49461443 -2 11 C-3.13643966 7.59068103 -2.86747764 6.99664544 -1.5625 3.8125 C-1.13130859 2.73935547 -1.13130859 2.73935547 -0.69140625 1.64453125 C-0.46324219 1.10183594 -0.23507812 0.55914063 0 0 Z " fill="#1F3F57" transform="translate(376,564)"/>
<path d="M0 0 C3.80026809 2.53351206 4.50840015 4.74894043 6 9 C5.67 9.99 5.34 10.98 5 12 C4.15885829 10.56705502 3.32734313 9.12845595 2.5 7.6875 C1.80390625 6.48673828 1.80390625 6.48673828 1.09375 5.26171875 C0 3 0 3 0 0 Z " fill="#1B3C55" transform="translate(583,530)"/>
<path d="M0 0 C0.66 0 1.32 0 2 0 C1.01 2.97 0.02 5.94 -1 9 C-1.66 9 -2.32 9 -3 9 C-2.01 6.03 -1.02 3.06 0 0 Z " fill="#26465E" transform="translate(468,645)"/>
<path d="M0 0 C0.66 0.33 1.32 0.66 2 1 C-0.475 5.455 -0.475 5.455 -3 10 C-4 6 -4 6 -2.0625 2.75 C-1.381875 1.8425 -0.70125 0.935 0 0 Z " fill="#DCEAF0" transform="translate(673,481)"/>
<path d="M0 0 C5.09659478 2.54829739 5.10871914 3.89354167 7 9 C6.01 9.495 6.01 9.495 5 10 C3.35 6.7 1.7 3.4 0 0 Z " fill="#24445E" transform="translate(543,462)"/>
<path d="M0 0 C0.33 0.66 0.66 1.32 1 2 C-1.45454545 7.72727273 -1.45454545 7.72727273 -4 9 C-3.46930939 5.17902761 -2.50298434 2.93828597 0 0 Z " fill="#0E324E" transform="translate(707,428)"/>
</svg>
