<?xml version="1.0" standalone="no"?>
<!DOCTYPE svg PUBLIC "-//W3C//DTD SVG 20010904//EN"
 "http://www.w3.org/TR/2001/REC-SVG-20010904/DTD/svg10.dtd">
<svg version="1.0" xmlns="http://www.w3.org/2000/svg"
 width="1408.000000pt" height="768.000000pt" viewBox="0 0 1408.000000 768.000000"
 preserveAspectRatio="xMidYMid meet">

<g transform="translate(0.000000,768.000000) scale(0.100000,-0.100000)"
fill="#000000" stroke="none">
<path d="M7170 5828 l-21 -43 22 28 22 28 18 -28 c24 -36 24 -27 0 21 l-20 38
-21 -44z"/>
<path d="M7160 5742 c-96 -177 -110 -205 -98 -189 7 9 38 59 68 111 30 52 58
92 63 89 5 -3 22 -26 38 -51 16 -25 29 -41 29 -36 0 15 -60 124 -68 124 -4 0
-18 -22 -32 -48z"/>
<path d="M7110 5724 c-17 -31 -30 -58 -28 -60 2 -2 19 24 37 56 18 33 30 60
28 60 -3 0 -19 -25 -37 -56z"/>
<path d="M7261 5723 c34 -58 43 -63 18 -10 -13 26 -27 47 -32 47 -5 0 1 -17
14 -37z"/>
<path d="M7032 5593 c-10 -16 -36 -59 -57 -98 -21 -38 -51 -92 -68 -118 -16
-26 -27 -50 -24 -53 2 -3 35 48 72 113 37 65 76 133 87 151 24 39 17 43 -10 5z"/>
<path d="M7586 5518 c-46 -80 -132 -215 -150 -235 -11 -13 -16 -26 -13 -30 4
-3 9 -4 10 -2 16 19 74 111 120 188 l56 93 24 -39 c13 -21 72 -122 131 -226
l108 -187 37 27 c21 16 65 48 99 73 34 25 62 48 62 51 0 3 -7 14 -15 25 -14
19 -14 19 -9 -2 5 -17 -10 -32 -82 -83 -47 -34 -88 -60 -89 -59 -7 8 -212 349
-234 390 -14 26 -28 48 -31 48 -3 0 -14 -15 -24 -32z"/>
<path d="M6964 5393 c-42 -76 -122 -217 -177 -313 -125 -218 -153 -270 -132
-245 30 38 401 695 392 695 -3 0 -40 -62 -83 -137z"/>
<path d="M7579 5442 c-8 -15 -28 -48 -43 -74 -40 -68 -26 -59 20 12 22 33 41
60 44 60 3 0 20 -23 39 -50 38 -56 53 -67 23 -17 -10 17 -28 47 -38 65 -10 17
-21 32 -24 32 -3 0 -12 -12 -21 -28z"/>
<path d="M4650 5315 c0 -5 56 -107 123 -225 68 -118 224 -390 346 -605 123
-214 269 -469 324 -565 438 -765 594 -1038 600 -1053 6 -15 14 -5 41 45 18 35
129 230 246 433 117 204 298 521 402 705 240 423 268 470 274 470 3 0 3 -3 1
-7 -24 -39 -243 -434 -292 -523 -34 -63 -72 -133 -85 -155 -34 -60 -100 -177
-165 -295 -154 -279 -365 -650 -400 -704 -10 -14 -13 -26 -7 -26 10 0 52 67
142 230 93 167 271 482 331 586 33 55 59 103 59 106 0 4 23 45 50 93 28 48 50
88 50 90 0 2 21 39 46 82 26 43 62 107 81 142 27 51 219 377 228 389 3 3 84
-128 125 -203 52 -94 165 -281 173 -286 8 -6 -35 -121 -54 -142 -7 -9 -133
188 -208 326 -24 42 -44 77 -46 77 -4 0 -145 -249 -145 -258 0 -15 115 -211
202 -341 104 -157 390 -560 398 -561 3 0 19 39 34 88 43 131 127 343 134 338
4 -2 8 8 8 22 1 15 18 61 38 102 20 41 34 64 31 50 l-6 -25 15 25 c18 29 23
66 6 40 -27 -41 -3 17 67 161 54 112 79 156 86 147 6 -9 7 -8 3 5 -3 10 6 41
20 70 61 122 212 363 297 472 85 109 235 271 243 262 2 -2 0 -28 -6 -57 -5
-29 -10 -107 -10 -172 0 -182 44 -372 125 -543 35 -72 202 -367 331 -583 41
-68 74 -125 74 -127 0 -2 -60 -4 -134 -4 l-133 -2 -114 193 c-237 403 -289
537 -307 802 l-7 98 -74 -113 c-41 -63 -93 -148 -115 -190 l-41 -76 40 -99
c60 -151 165 -354 325 -626 l145 -248 432 0 432 0 -51 88 c-28 48 -90 155
-138 237 -342 584 -376 644 -421 741 -44 96 -94 252 -110 348 -16 98 -6 321
20 415 21 78 106 264 141 309 11 14 19 27 17 29 -16 15 -257 -101 -396 -191
-307 -199 -604 -539 -809 -924 -24 -46 -47 -81 -49 -78 -6 6 69 165 126 265
22 40 41 76 41 79 0 4 -13 -8 -30 -26 -16 -18 -30 -41 -30 -50 0 -14 -2 -13
-13 3 -10 12 -16 14 -21 7 -5 -9 -14 -9 -34 1 -15 8 -35 12 -44 10 -10 -3 -18
1 -18 7 0 6 -4 9 -9 5 -13 -8 -91 -125 -91 -137 0 -26 -29 8 -86 102 -35 57
-64 100 -64 95 0 -6 4 -17 10 -25 6 -9 5 -20 -3 -29 -9 -12 -9 -13 1 -7 6 4
12 3 12 -3 0 -14 -45 -25 -61 -16 -6 4 -15 2 -19 -4 -5 -9 -11 -9 -23 3 -10
11 -17 12 -19 4 -2 -6 -16 1 -31 18 -15 16 -27 25 -27 20 0 -9 72 -147 118
-225 14 -25 21 -42 16 -38 -12 7 -85 122 -191 302 -108 182 -88 178 -173 34
-141 -238 -154 -260 -162 -265 -5 -3 23 55 62 129 38 73 70 137 70 140 0 4 -9
-2 -20 -13 -12 -12 -25 -18 -30 -15 -6 4 -10 2 -10 -4 0 -6 -7 -8 -15 -5 -8 4
-12 10 -9 15 7 11 1 11 -30 -1 -17 -6 -27 -6 -32 1 -4 8 -9 7 -14 -1 -4 -7
-13 -9 -19 -6 -6 4 -8 12 -5 18 4 6 2 8 -4 4 -6 -3 -47 -68 -92 -144 -108
-181 -143 -239 -153 -248 -11 -11 84 169 158 301 91 162 177 325 172 325 -3 0
-22 -30 -43 -67 -20 -38 -156 -277 -302 -533 -145 -256 -303 -534 -351 -617
-47 -84 -88 -153 -91 -153 -5 0 -860 1495 -907 1585 l-22 42 92 -3 c51 -2 102
-6 115 -9 25 -6 68 -68 182 -265 40 -69 89 -152 108 -185 48 -82 107 -186 155
-273 22 -39 42 -70 45 -67 6 5 -169 314 -416 738 l-45 77 -123 0 c-112 0 -124
2 -134 19 -5 11 -10 22 -10 25 0 3 58 6 129 6 l129 0 52 -92 c29 -51 94 -165
145 -253 51 -88 161 -281 245 -430 263 -466 260 -460 274 -433 24 45 339 603
346 613 4 6 48 82 97 170 49 88 149 264 221 392 73 128 132 235 132 239 0 3
-7 1 -15 -6 -8 -7 -15 -16 -15 -20 0 -4 -51 -92 -113 -196 -62 -104 -139 -233
-171 -286 -32 -54 -59 -98 -61 -98 -5 0 6 32 15 45 4 6 31 55 59 110 38 72 45
92 27 73 -28 -32 -36 -34 -36 -13 0 8 -3 14 -7 13 -13 -3 -58 14 -65 26 -5 6
-8 2 -8 -11 0 -27 -6 -29 -27 -7 -13 12 -14 17 -3 24 7 4 10 14 8 21 -2 7 -64
-87 -137 -209 -73 -122 -134 -222 -137 -222 -4 0 58 120 138 265 105 192 131
239 121 230 -5 -5 -36 -55 -68 -110 -116 -201 -243 -422 -276 -482 -18 -35
-36 -63 -39 -63 -3 0 -41 65 -86 143 -223 392 -317 553 -327 562 -12 12 39
-84 165 -310 52 -93 110 -199 129 -235 18 -36 49 -89 67 -118 19 -30 32 -55
30 -57 -5 -5 -122 190 -343 570 -161 277 -164 282 -188 326 -15 29 -27 38 -56
43 -20 3 -187 6 -371 7 -184 0 -348 4 -365 7 -16 4 139 9 345 12 l375 5 -388
5 c-254 3 -387 2 -387 -5z m737 -232 c6 -16 28 -57 49 -93 20 -36 32 -60 26
-55 -6 6 -28 42 -50 80 -22 39 -50 76 -63 82 l-24 13 25 0 c19 0 29 -8 37 -27z
m-319 -35 c16 -24 82 -137 147 -253 64 -115 133 -236 151 -269 19 -32 33 -60
31 -63 -3 -2 -47 69 -99 159 -52 90 -117 201 -144 248 -118 201 -155 279 -86
178z m420 -153 c-3 -3 -9 2 -12 12 -6 14 -5 15 5 6 7 -7 10 -15 7 -18z m22
-35 c6 -11 8 -20 6 -20 -3 0 -10 9 -16 20 -6 11 -8 20 -6 20 3 0 10 -9 16 -20z
m1706 -554 c79 -137 142 -252 139 -254 -6 -6 0 -14 -62 88 -47 79 -82 141
-206 370 -83 152 -19 51 129 -204z m-1066 164 c-6 -11 -13 -20 -16 -20 -2 0 0
9 6 20 6 11 13 20 16 20 2 0 0 -9 -6 -20z m2101 -81 c-11 -15 -21 -31 -21 -34
0 -3 -19 -35 -41 -71 -67 -105 -57 -64 12 52 35 58 65 101 67 94 3 -7 -5 -25
-17 -41z m-536 -18 c3 -5 2 -12 -3 -15 -5 -3 -9 1 -9 9 0 17 3 19 12 6z m-570
-306 c46 -78 12 -43 -41 42 -26 43 -53 86 -60 96 -10 16 -17 9 -59 -63 -26
-44 -48 -80 -50 -80 -5 0 17 51 60 139 l37 75 42 -80 c23 -44 55 -102 71 -129z
m988 130 c-3 -9 -8 -14 -10 -11 -3 3 -2 9 2 15 9 16 15 13 8 -4z m-943 -205
c6 -11 8 -20 6 -20 -3 0 -10 9 -16 20 -6 11 -8 20 -6 20 3 0 10 -9 16 -20z"/>
<path d="M5468 5313 c6 -2 18 -2 25 0 6 3 1 5 -13 5 -14 0 -19 -2 -12 -5z"/>
<path d="M7421 5304 c0 -11 3 -14 6 -6 3 7 2 16 -1 19 -3 4 -6 -2 -5 -13z"/>
<path d="M7494 5298 c-4 -7 -15 -24 -23 -38 -10 -15 -11 -21 -3 -16 13 7 46
66 38 66 -3 0 -8 -6 -12 -12z"/>
<path d="M5565 5180 c9 -16 18 -30 21 -30 2 0 -2 14 -11 30 -9 17 -18 30 -21
30 -2 0 2 -13 11 -30z"/>
<path d="M5605 5110 c9 -16 18 -30 21 -30 2 0 -2 14 -11 30 -9 17 -18 30 -21
30 -2 0 2 -13 11 -30z"/>
<path d="M7966 5100 c-47 -36 -57 -46 -31 -32 23 13 83 61 75 61 -3 0 -22 -13
-44 -29z"/>
<path d="M6455 5060 c-9 -16 -13 -30 -11 -30 3 0 12 14 21 30 9 17 13 30 11
30 -3 0 -12 -13 -21 -30z"/>
<path d="M7889 5043 c-13 -16 -12 -17 4 -4 9 7 17 15 17 17 0 8 -8 3 -21 -13z"/>
<path d="M4830 4945 c0 -6 16 -36 35 -68 19 -32 35 -61 35 -65 0 -4 15 -30 34
-57 18 -28 52 -86 76 -130 23 -44 46 -84 50 -90 5 -5 23 -37 41 -70 38 -71 59
-103 59 -90 0 8 -86 165 -140 255 -15 25 -54 92 -85 150 -64 116 -105 180
-105 165z"/>
<path d="M8367 4778 c-111 -122 -169 -197 -262 -337 -78 -119 -170 -278 -148
-256 5 6 47 71 93 145 113 185 174 266 297 397 39 41 67 64 76 60 11 -4 16 5
21 31 3 20 4 38 2 39 -2 2 -38 -33 -79 -79z"/>
<path d="M6627 4803 c-54 -97 -78 -143 -74 -143 8 0 88 142 83 147 -2 2 -6 1
-9 -4z"/>
<path d="M6850 4780 c-6 -11 -8 -20 -6 -20 3 0 10 9 16 20 6 11 8 20 6 20 -3
0 -10 -9 -16 -20z"/>
<path d="M7642 4573 c-78 -117 -135 -213 -130 -218 2 -3 22 26 43 63 22 37 66
106 97 155 32 48 56 87 53 87 -2 0 -31 -39 -63 -87z"/>
<path d="M6469 4523 c-39 -71 -74 -131 -76 -135 -2 -5 -2 -8 1 -8 2 0 20 26
39 58 54 89 119 212 113 212 -2 0 -37 -57 -77 -127z"/>
<path d="M7340 4590 c11 -22 23 -40 25 -40 3 0 -4 18 -15 40 -11 22 -23 40
-25 40 -3 0 4 -18 15 -40z"/>
<path d="M7330 4525 c0 -8 4 -15 10 -15 5 0 7 7 4 15 -4 8 -8 15 -10 15 -2 0
-4 -7 -4 -15z"/>
<path d="M7393 4498 c13 -24 39 -69 57 -101 18 -32 35 -56 37 -53 5 5 -106
196 -114 196 -3 0 6 -19 20 -42z"/>
<path d="M5206 4282 c16 -28 37 -62 47 -75 10 -12 4 5 -14 38 -18 33 -39 67
-47 75 -8 8 -2 -9 14 -38z"/>
<path d="M6322 4263 c-59 -101 -135 -243 -128 -243 4 0 122 203 160 278 29 56
10 35 -32 -35z"/>
<path d="M5312 4101 c23 -44 44 -78 46 -76 5 5 -77 155 -84 155 -3 0 14 -36
38 -79z"/>
<path d="M5830 4170 c0 -5 5 -10 11 -10 5 0 7 5 4 10 -3 6 -8 10 -11 10 -2 0
-4 -4 -4 -10z"/>
<path d="M5860 4121 c0 -6 4 -13 10 -16 6 -3 7 1 4 9 -7 18 -14 21 -14 7z"/>
<path d="M5889 4075 c17 -34 31 -51 31 -39 0 7 -9 22 -21 35 -16 19 -18 20
-10 4z"/>
<path d="M5383 3968 c13 -24 43 -74 67 -113 24 -38 64 -108 90 -155 96 -174
220 -385 220 -374 0 10 -218 402 -264 474 -12 19 -44 74 -71 122 -28 49 -54
88 -58 88 -5 0 2 -19 16 -42z"/>
<path d="M6126 3916 c-31 -52 -60 -98 -66 -101 -5 -3 -10 -11 -10 -16 0 -21
20 4 68 84 59 99 74 127 68 127 -3 0 -30 -42 -60 -94z"/>
<path d="M8590 4001 c0 -6 4 -13 10 -16 6 -3 7 1 4 9 -7 18 -14 21 -14 7z"/>
<path d="M5940 3985 c0 -15 18 -40 24 -34 3 3 -1 14 -9 25 -8 10 -14 15 -15 9z"/>
<path d="M8644 3903 c21 -40 115 -196 122 -202 11 -10 -15 38 -74 137 -51 87
-80 125 -48 65z"/>
<path d="M6020 3843 c0 -4 5 -15 10 -23 8 -13 10 -13 10 2 0 9 -4 20 -10 23
-5 3 -10 3 -10 -2z"/>
<path d="M7040 3725 c0 -10 109 -175 116 -175 8 0 -16 40 -64 110 -53 76 -52
76 -52 65z"/>
<path d="M7701 3663 c-10 -26 -10 -27 4 -9 8 11 15 23 15 28 0 15 -7 8 -19
-19z"/>
<path d="M8770 3686 c0 -4 58 -101 135 -224 15 -24 29 -41 32 -38 3 2 -8 24
-25 48 -16 24 -50 80 -76 125 -42 73 -66 105 -66 89z"/>
<path d="M8248 3615 c11 -22 28 -49 37 -60 9 -11 5 3 -10 30 -34 61 -55 85
-27 30z"/>
<path d="M8076 3537 c3 -10 9 -15 12 -12 3 3 0 11 -7 18 -10 9 -11 8 -5 -6z"/>
<path d="M7170 3525 c0 -8 126 -191 164 -240 18 -22 54 -71 80 -108 26 -38 50
-66 53 -63 5 5 -84 134 -158 228 -20 26 -58 79 -84 118 -43 65 -55 79 -55 65z"/>
<path d="M8300 3526 c0 -2 25 -46 55 -97 30 -52 55 -91 55 -86 0 4 -23 48 -51
97 -45 80 -59 100 -59 86z"/>
<path d="M8090 3505 c0 -16 82 -157 133 -227 92 -129 241 -248 374 -300 104
-39 116 -35 15 6 -192 78 -349 226 -478 454 -24 42 -44 72 -44 67z"/>
<path d="M6879 3398 c-7 -12 -47 -90 -89 -173 -42 -82 -124 -240 -182 -350
-57 -110 -142 -272 -188 -360 -95 -184 -166 -319 -314 -600 -59 -110 -145
-276 -192 -368 -48 -93 -90 -165 -95 -160 -5 5 -35 56 -67 113 -32 58 -86 152
-119 210 -33 58 -131 231 -218 385 -86 154 -186 331 -222 394 -35 62 -63 115
-61 117 5 4 32 -43 223 -381 87 -154 192 -341 235 -415 43 -74 102 -180 133
-235 77 -140 91 -165 97 -165 3 0 28 44 57 98 61 115 465 886 535 1022 27 52
90 173 139 268 50 94 88 172 85 172 -2 0 -34 -55 -71 -122 -37 -68 -84 -154
-106 -193 -22 -38 -86 -154 -142 -257 -55 -104 -104 -188 -108 -188 -8 0 79
191 105 233 8 12 17 33 20 47 7 24 6 24 -8 6 -16 -19 -16 -19 -16 2 0 12 5 22
10 22 6 0 10 4 10 9 0 5 -9 7 -20 4 -11 -3 -20 -1 -20 5 0 17 -33 7 -44 -14
-17 -30 -48 -54 -60 -47 -8 5 -8 3 0 -8 9 -11 6 -22 -13 -49 -14 -19 -23 -27
-20 -18 5 14 -18 47 -27 37 -10 -14 -88 -150 -176 -311 -56 -104 -104 -188
-106 -188 -2 0 77 162 176 360 99 198 178 360 176 360 -4 0 -100 -180 -313
-589 l-70 -133 -80 138 c-44 77 -112 198 -152 269 -113 200 -151 265 -157 265
-6 0 35 -77 196 -370 134 -245 137 -250 117 -230 -8 8 -55 85 -105 170 -187
320 -182 312 -212 308 -22 -3 -26 -1 -23 13 3 9 0 20 -6 23 -7 4 -8 1 -5 -8 6
-17 -4 -21 -21 -8 -6 4 -33 37 -60 75 -27 37 -52 67 -57 67 -11 0 -10 -7 2
-30 8 -16 8 -18 -5 -14 -8 4 -15 16 -15 28 0 11 -5 28 -10 36 -8 11 -9 8 -6
-12 7 -41 -17 -35 -34 7 -8 19 -17 35 -22 35 -4 0 -8 7 -8 15 0 8 -4 15 -10
15 -16 0 -12 -13 18 -61 15 -24 57 -100 91 -169 35 -69 72 -140 83 -158 11
-18 19 -35 16 -37 -4 -4 -49 72 -243 408 -120 208 -197 340 -202 346 -2 2 -6
2 -9 -2 -4 -3 9 -34 28 -69 81 -146 182 -325 196 -345 8 -13 12 -23 9 -23 -7
0 -130 205 -140 234 -4 10 -10 16 -13 13 -6 -6 77 -174 109 -221 11 -16 32
-52 47 -80 52 -101 143 -261 161 -288 11 -14 19 -29 19 -33 0 -4 8 -19 18 -33
11 -15 42 -70 69 -122 84 -157 114 -212 151 -270 20 -30 65 -109 100 -175 36
-66 82 -152 103 -191 65 -120 79 -121 136 -7 34 69 84 165 293 568 28 55 78
149 110 210 32 60 109 211 173 335 63 124 168 326 233 450 155 295 207 400
201 406 -3 3 -11 -5 -18 -18z m-1650 -791 c8 -10 7 -14 -4 -14 -8 0 -15 6 -15
14 0 7 2 13 4 13 2 0 9 -6 15 -13z m596 -697 c-3 -5 -12 -10 -18 -10 -7 0 -6
4 3 10 19 12 23 12 15 0z"/>
<path d="M8440 3285 c0 -5 9 -21 20 -35 11 -14 20 -20 20 -15 0 6 -9 21 -20
35 -11 14 -20 21 -20 15z"/>
<path d="M5790 3261 c0 -6 4 -13 10 -16 6 -3 7 1 4 9 -7 18 -14 21 -14 7z"/>
<path d="M5839 3174 c25 -48 61 -102 61 -91 0 12 -61 116 -72 123 -5 3 0 -11
11 -32z"/>
<path d="M8491 3205 c0 -5 11 -28 24 -50 14 -22 25 -35 25 -30 0 6 -11 28 -25
50 -13 22 -24 36 -24 30z"/>
<path d="M7645 3189 c-4 -6 -5 -12 -2 -15 2 -3 7 2 10 11 7 17 1 20 -8 4z"/>
<path d="M8260 3165 c0 -2 10 -10 23 -16 20 -11 21 -11 8 4 -13 16 -31 23 -31
12z"/>
<path d="M7596 3043 l-39 -117 39 -33 c22 -18 76 -58 121 -88 223 -151 432
-216 693 -217 358 -1 662 124 923 379 84 83 94 114 12 40 -72 -65 -238 -147
-391 -193 -119 -35 -311 -44 -429 -20 -99 21 -258 96 -345 164 -61 48 -92 63
-56 27 17 -18 20 -26 9 -24 -5 1 -10 0 -13 -1 -17 -6 -52 -5 -56 2 -3 4 -10 6
-15 2 -5 -3 -7 -10 -4 -15 4 -5 -7 -9 -24 -9 -17 0 -36 -6 -43 -13 -7 -8 -22
-12 -33 -10 -15 4 -17 2 -6 -5 19 -14 6 -46 -15 -38 -9 4 -23 1 -30 -5 -8 -6
-43 -14 -79 -17 -36 -2 -65 -6 -65 -9 0 -2 15 -17 33 -34 28 -26 29 -29 7 -18
-38 18 -130 78 -177 116 l-41 33 34 102 c19 56 33 105 32 110 -2 5 -21 -44
-42 -109z"/>
<path d="M8060 3131 c0 -6 4 -13 10 -16 6 -3 7 1 4 9 -7 18 -14 21 -14 7z"/>
<path d="M8310 3126 c0 -2 8 -10 18 -17 15 -13 16 -12 3 4 -13 16 -21 21 -21
13z"/>
<path d="M8550 3100 c0 -4 19 -10 43 -12 71 -8 618 -7 692 0 l70 8 -105 7
c-135 10 -700 7 -700 -3z"/>
<path d="M8154 3026 c27 -26 58 -52 70 -58 26 -13 17 -4 -59 56 l-60 48 49
-46z"/>
<path d="M5950 2984 c0 -5 7 -18 15 -28 8 -11 15 -16 15 -10 0 5 -7 18 -15 28
-8 11 -15 16 -15 10z"/>
<path d="M8708 2943 c7 -3 16 -2 19 1 4 3 -2 6 -13 5 -11 0 -14 -3 -6 -6z"/>
<path d="M6005 2881 c16 -28 30 -49 32 -47 6 6 -35 83 -48 92 -7 4 1 -16 16
-45z"/>
<path d="M8808 2923 c6 -2 18 -2 25 0 6 3 1 5 -13 5 -14 0 -19 -2 -12 -5z"/>
<path d="M6726 2883 c-6 -14 -5 -15 5 -6 7 7 10 15 7 18 -3 3 -9 -2 -12 -12z"/>
<path d="M9220 2825 c-178 -147 -420 -248 -663 -276 -325 -38 -628 46 -897
246 -76 57 -90 64 -55 26 112 -121 332 -231 570 -284 127 -29 344 -30 474 -3
225 48 486 179 605 305 41 43 30 39 -34 -14z"/>
<path d="M5303 2824 c7 -7 159 -6 166 1 2 3 -35 5 -84 5 -49 0 -85 -3 -82 -6z"/>
<path d="M5568 2793 c18 -26 122 -209 197 -346 l32 -59 67 132 c37 73 65 134
62 137 -5 5 -31 -39 -93 -154 l-39 -73 -18 38 c-31 66 -209 352 -218 352 -5 0
-1 -12 10 -27z"/>
<path d="M6625 2693 c-37 -70 -81 -151 -97 -179 l-28 -52 77 -45 c252 -147
530 -253 798 -304 110 -21 439 -29 562 -14 276 34 529 119 752 253 107 64 253
173 306 229 l40 42 -60 -41 c-60 -42 -82 -51 -70 -32 4 6 -18 1 -47 -11 -299
-121 -668 -108 -1000 35 -53 23 -47 11 7 -14 130 -59 310 -105 460 -116 155
-11 387 23 511 76 73 32 76 18 3 -23 -114 -64 -215 -106 -336 -141 -161 -46
-254 -60 -413 -59 -314 1 -610 111 -854 318 -43 36 -62 48 -51 31 17 -25 17
-26 -1 -25 -33 3 -55 -1 -50 -9 5 -9 -41 -16 -91 -14 -32 1 -46 -19 -23 -33
15 -9 12 -22 -6 -29 -8 -3 -12 -2 -9 4 3 6 -3 10 -14 10 -10 0 -21 -5 -23 -11
-2 -6 -16 -11 -31 -11 -15 0 -27 -4 -27 -9 0 -5 -12 -4 -26 1 -34 13 -47 13
-38 -2 4 -7 -1 -6 -12 3 -10 9 -31 16 -46 15 -16 -1 -28 3 -28 9 0 5 -5 3 -10
-5 -9 -13 -12 -13 -25 4 -7 10 -18 15 -24 11 -18 -11 -34 5 -20 21 15 19 4 18
-15 -1 -13 -13 -16 -13 -30 0 -20 20 -30 19 -22 -2 4 -10 4 -14 0 -10 -4 3
-19 -13 -34 -36 -19 -30 -24 -46 -17 -55 7 -9 6 -11 -7 -6 -9 3 -16 10 -16 15
0 5 36 81 80 170 44 89 78 164 76 166 -2 3 -34 -53 -71 -124z m415 -187 c0
-11 -19 -15 -25 -6 -3 5 1 10 9 10 9 0 16 -2 16 -4z"/>
<path d="M5364 2762 c3 -5 45 -12 92 -15 51 -4 93 -12 100 -19 7 -7 35 -51 63
-98 125 -211 176 -290 186 -287 9 3 85 144 99 185 12 34 -23 -20 -62 -95 -20
-40 -40 -73 -43 -73 -4 0 -21 28 -39 63 -17 34 -46 87 -64 117 -18 30 -55 94
-82 142 l-49 88 -103 0 c-57 0 -101 -4 -98 -8z"/>
<path d="M7750 2626 c0 -3 9 -10 20 -16 11 -6 20 -8 20 -6 0 3 -9 10 -20 16
-11 6 -20 8 -20 6z"/>
<path d="M6920 2560 c-24 -8 -23 -8 8 -9 20 -1 31 3 27 9 -3 6 -7 10 -8 9 -1
-1 -13 -5 -27 -9z"/>
<path d="M5420 2520 c6 -11 13 -20 16 -20 2 0 0 9 -6 20 -6 11 -13 20 -16 20
-2 0 0 -9 6 -20z"/>
<path d="M8910 2460 c-9 -6 -10 -10 -3 -10 6 0 15 5 18 10 8 12 4 12 -15 0z"/>
<path d="M6165 2449 c-4 -6 -5 -12 -2 -15 2 -3 7 2 10 11 7 17 1 20 -8 4z"/>
<path d="M8775 2364 c-335 -228 -713 -336 -1125 -321 -331 12 -634 97 -955
268 -197 105 -225 113 -92 26 140 -92 413 -214 567 -252 3 -1 12 -5 20 -8 23
-10 205 -44 307 -57 152 -21 482 -5 628 30 28 7 64 14 80 17 17 2 39 10 50 17
11 7 49 23 85 35 75 26 124 46 161 66 14 8 29 12 33 8 3 -3 6 -1 6 5 0 7 9 12
20 12 11 0 20 3 20 8 0 4 24 20 53 36 82 46 210 132 236 160 14 14 23 26 20
25 -2 0 -53 -34 -114 -75z"/>
</g>
</svg>
